<svg id="IconMaleFamily" viewBox="0 0 27 27" fill="none" xmlns="http://www.w3.org/2000/svg">
<circle cx="13.5" cy="13.5" r="13.5" fill="#0056B4"/>
<path d="M13.5 7.6279C12.94 7.6279 12.45 7.40311 12.0533 6.95355C11.6567 6.50398 11.4583 5.96185 11.4583 5.31395C11.4583 4.66604 11.6567 4.12392 12.0533 3.67435C12.45 3.22478 12.9283 3 13.5 3C14.0717 3 14.55 3.22478 14.9467 3.67435C15.3433 4.12392 15.5417 4.66604 15.5417 5.31395C15.5417 5.96185 15.3433 6.50398 14.9467 6.95355C14.55 7.40311 14.0717 7.6279 13.5 7.6279ZM11.1667 24.1561V17.5448H10V11.5947C10 10.8674 10.2333 10.246 10.6883 9.73028C11.1433 9.2146 11.6917 8.95015 12.3333 8.95015H14.6667C15.3083 8.95015 15.8567 9.2146 16.3117 9.73028C16.7667 10.246 17 10.8674 17 11.5947V17.5448H15.8333V24.1561H11.1667Z" fill="white"/>
</svg>
