<svg id="IconMaleChildFamily" viewBox="0 0 27 27" fill="none" xmlns="http://www.w3.org/2000/svg">
<circle cx="13.5" cy="13.5" r="13.5" fill="#97C1F5"/>
<path d="M13.5 10.625C13.1 10.625 12.75 10.4975 12.4667 10.2425C12.1833 9.9875 12.0417 9.68 12.0417 9.3125C12.0417 8.945 12.1833 8.6375 12.4667 8.3825C12.75 8.1275 13.0917 8 13.5 8C13.9083 8 14.25 8.1275 14.5333 8.3825C14.8167 8.6375 14.9583 8.945 14.9583 9.3125C14.9583 9.68 14.8167 9.9875 14.5333 10.2425C14.25 10.4975 13.9083 10.625 13.5 10.625ZM11.8333 20V16.25H11V12.875C11 12.4625 11.1667 12.11 11.4917 11.8175C11.8167 11.525 12.2083 11.375 12.6667 11.375H14.3333C14.7917 11.375 15.1833 11.525 15.5083 11.8175C15.8333 12.11 16 12.4625 16 12.875V16.25H15.1667V20H11.8333Z" fill="white"/>
</svg>
