<svg id="IconFemaleChildFamily" viewBox="0 0 27 27" fill="none" xmlns="http://www.w3.org/2000/svg">
<circle cx="13.5" cy="13.5" r="13.5" fill="#FFA8D7"/>
<path d="M13.9925 10.0853C13.6334 10.0853 13.3192 9.93541 13.0648 9.6357C12.8105 9.33599 12.6833 8.97457 12.6833 8.54263C12.6833 8.1107 12.8105 7.74928 13.0648 7.44957C13.3192 7.14986 13.6259 7 13.9925 7C14.3591 7 14.6658 7.14986 14.9202 7.44957C15.1746 7.74928 15.3017 8.1107 15.3017 8.54263C15.3017 8.97457 15.1746 9.33599 14.9202 9.6357C14.6658 9.93541 14.3591 10.0853 13.9925 10.0853ZM12.4963 21.1041V17.578H11L12.7805 11.9541C12.8778 11.6632 13.0424 11.4251 13.2594 11.24C13.4763 11.0549 13.7232 10.9668 14 10.9668C14.2768 10.9668 14.5237 11.0549 14.7406 11.24C14.9576 11.4251 15.1147 11.6632 15.2195 11.9541L17 17.578H15.5037V21.1041H12.4963Z" fill="white"/>
</svg>
