<svg id="IconFemaleFamily" viewBox="0 0 27 27" fill="none" xmlns="http://www.w3.org/2000/svg">
<circle cx="13.5" cy="13.5" r="13.5" fill="#634689"/>
<path d="M13.4875 7.59375C12.889 7.59375 12.3653 7.37063 11.9414 6.92438C11.5175 6.47813 11.3055 5.94 11.3055 5.29688C11.3055 4.65375 11.5175 4.11563 11.9414 3.66938C12.3653 3.22312 12.8766 3 13.4875 3C14.0985 3 14.6097 3.22312 15.0337 3.66938C15.4576 4.11563 15.6696 4.65375 15.6696 5.29688C15.6696 5.94 15.4576 6.47813 15.0337 6.92438C14.6097 7.37063 14.0985 7.59375 13.4875 7.59375ZM10.9938 24V18.75H8.5L11.4676 10.3762C11.6297 9.94312 11.904 9.58875 12.2656 9.31313C12.6272 9.0375 13.0387 8.90625 13.5 8.90625C13.9613 8.90625 14.3728 9.0375 14.7344 9.31313C15.096 9.58875 15.3579 9.94312 15.5324 10.3762L18.5 18.75H16.0062V24H10.9938Z" fill="white"/>
</svg>
