<svg width="30" height="30" viewBox="0 0 30 30" fill="none" xmlns="http://www.w3.org/2000/svg" id="logo">
<circle cx="15" cy="15" r="15" fill="currentColor"/>
<path d="M13.928 17.456L13.424 10.112L13.304 6.92H16.856L16.736 10.112L16.232 17.456H13.928ZM15.08 23.288C14.472 23.288 13.96 23.08 13.544 22.664C13.144 22.232 12.944 21.704 12.944 21.08C12.944 20.44 13.144 19.912 13.544 19.496C13.96 19.064 14.472 18.848 15.08 18.848C15.688 18.848 16.192 19.064 16.592 19.496C17.008 19.912 17.216 20.44 17.216 21.08C17.216 21.704 17.008 22.232 16.592 22.664C16.192 23.08 15.688 23.288 15.08 23.288Z" fill="#010101"/>
</svg>
